<svg xmlns="http://www.w3.org/2000/svg" viewBox="0 0 463.19 89.83"><defs><style>.cls-1{fill:#4e7560;}</style></defs><g id="Layer_2" data-name="Layer 2"><g id="Layer_1-2" data-name="Layer 1"><path class="cls-1" d="M184.66,43.49a2.34,2.34,0,0,1-2.3-1.73,7.19,7.19,0,0,0-1.73-3.23,13.46,13.46,0,0,0-4.37-3.11,20.56,20.56,0,0,0-5.5-1.61,36.42,36.42,0,0,0-5.35-.43,24.6,24.6,0,0,0-5.15.53,15.55,15.55,0,0,0-4.42,1.6,9.34,9.34,0,0,0-3.07,2.73,6.7,6.7,0,0,0-1.16,4,3.1,3.1,0,0,0,0,.49,2.45,2.45,0,0,1,0,.49,6.22,6.22,0,0,0,3.55,5A34.65,34.65,0,0,0,163,50.93q4.62,1.11,9.87,2.14a44.93,44.93,0,0,1,9.73,3,21.08,21.08,0,0,1,7.49,5.5q3,3.49,3.11,9.53a14.19,14.19,0,0,1-2.09,8.31,15.7,15.7,0,0,1-5.79,5.16,25.39,25.39,0,0,1-8.07,2.57,60.56,60.56,0,0,1-9.05.68,40.17,40.17,0,0,1-13-1.8,23.39,23.39,0,0,1-8.36-4.71,17.06,17.06,0,0,1-4.52-6.47,21.87,21.87,0,0,1-1.18-4.24,2.4,2.4,0,0,1,2.36-2.81H149a2.36,2.36,0,0,1,2.32,1.8,8.88,8.88,0,0,0,1.65,3.6,12.87,12.87,0,0,0,4.18,3.5,18.84,18.84,0,0,0,5.4,1.85,31.77,31.77,0,0,0,5.64.53,51.69,51.69,0,0,0,5.49-.29,18.76,18.76,0,0,0,4.77-1.12,8,8,0,0,0,3.35-2.38A6.31,6.31,0,0,0,183,71.2v-.58a6.41,6.41,0,0,0-3.36-5.2,28.63,28.63,0,0,0-7.58-2.92c-3-.74-6.26-1.46-9.73-2.14a54.5,54.5,0,0,1-9.72-2.82,21.92,21.92,0,0,1-7.64-5,12.74,12.74,0,0,1-3.4-8.61,18.72,18.72,0,0,1,1.36-8.8,15.4,15.4,0,0,1,4.91-6.07,21.34,21.34,0,0,1,8.07-3.55,47.86,47.86,0,0,1,10.85-1.12,34.51,34.51,0,0,1,12.88,2,22.75,22.75,0,0,1,7.88,5,17,17,0,0,1,4,6.27,27.59,27.59,0,0,1,.79,2.8A2.4,2.4,0,0,1,190,43.49Z"/><path class="cls-1" d="M200.62,63.52q0-12.15,6.75-18.09t18.24-5.93q11.37,0,18.09,5.93t6.71,18.09a28.72,28.72,0,0,1-1.9,11,19.54,19.54,0,0,1-5.2,7.44,21.09,21.09,0,0,1-7.88,4.23,36.13,36.13,0,0,1-19.64,0A21.54,21.54,0,0,1,207.86,82a19.74,19.74,0,0,1-5.3-7.44A28,28,0,0,1,200.62,63.52Zm25,15.27a21.91,21.91,0,0,0,6-.78,11,11,0,0,0,4.62-2.58,11.65,11.65,0,0,0,2.91-4.71,22,22,0,0,0,1-7.2,22.27,22.27,0,0,0-1-7.29,10.62,10.62,0,0,0-7.53-7.2,21.91,21.91,0,0,0-6-.78,21.29,21.29,0,0,0-6,.78,11,11,0,0,0-7.64,7.2,21.42,21.42,0,0,0-1.07,7.29,21.14,21.14,0,0,0,1.07,7.2,11.83,11.83,0,0,0,3,4.71A11.3,11.3,0,0,0,219.63,78,21.29,21.29,0,0,0,225.61,78.79Z"/><path class="cls-1" d="M294.85,84.74h0a2.39,2.39,0,0,0-4.1-1.68,16.12,16.12,0,0,1-1.35,1.27q-3.6,3-10,3.31a23,23,0,0,1-9-1.22,15.31,15.31,0,0,1-6.18-4.13,16.73,16.73,0,0,1-3.55-6.61A31.5,31.5,0,0,1,259.55,67V42.38A2.39,2.39,0,0,1,261.94,40h5.62A2.39,2.39,0,0,1,270,42.38V66.05a29.8,29.8,0,0,0,.44,5.25,10.5,10.5,0,0,0,1.7,4.23,8.43,8.43,0,0,0,3.5,2.82,16,16,0,0,0,11.52-.1,11,11,0,0,0,4.09-3.06,13.32,13.32,0,0,0,2.43-4.62,19.5,19.5,0,0,0,.83-5.78V42.38A2.39,2.39,0,0,1,296.85,40h5.62a2.39,2.39,0,0,1,2.39,2.39V84.69a2.39,2.39,0,0,1-2.37,2.39l-5.23,0A2.39,2.39,0,0,1,294.85,84.74Z"/><path class="cls-1" d="M317.79,84.66V19.92a2.41,2.41,0,0,1,2.4-2.4h5.62a2.4,2.4,0,0,1,2.39,2.4V84.66a2.39,2.39,0,0,1-2.39,2.39h-5.62A2.4,2.4,0,0,1,317.79,84.66Z"/><path class="cls-1" d="M341.91,84.66V19.92a2.4,2.4,0,0,1,2.39-2.4h5.62a2.4,2.4,0,0,1,2.39,2.4V84.66a2.39,2.39,0,0,1-2.39,2.39H344.3A2.39,2.39,0,0,1,341.91,84.66Z"/><path class="cls-1" d="M364.14,40l5.46-.05a2.39,2.39,0,0,1,2.26,1.56l14,37.6a.9.9,0,0,0,.85.59h0a.9.9,0,0,0,.85-.59l13.6-37.5A2.4,2.4,0,0,1,403.39,40h5.21a2.39,2.39,0,0,1,2.25,3.21L395.38,85.48a2.37,2.37,0,0,1-2.24,1.57H379.28A2.39,2.39,0,0,1,377,85.47L361.91,43.15A2.38,2.38,0,0,1,364.14,40Z"/><path class="cls-1" d="M459.65,71.59A2.4,2.4,0,0,1,462,74.53a15,15,0,0,1-1.93,4.65,14.27,14.27,0,0,1-5,4.76,21.19,21.19,0,0,1-7.1,2.43,51.7,51.7,0,0,1-8.7.68,29.13,29.13,0,0,1-10-1.6,21.17,21.17,0,0,1-7.53-4.57,20.11,20.11,0,0,1-4.82-7.29,26.68,26.68,0,0,1-1.7-9.78,31.54,31.54,0,0,1,1.26-8.75,21.14,21.14,0,0,1,4.19-7.83,21.62,21.62,0,0,1,7.73-5.64,28.46,28.46,0,0,1,11.81-2.19,25.55,25.55,0,0,1,10.21,1.9,19.39,19.39,0,0,1,7.3,5.4A22.32,22.32,0,0,1,462,55.06a34.6,34.6,0,0,1,1.18,8.34,2.41,2.41,0,0,1-2.4,2.46H428a2.4,2.4,0,0,0-2.33,3,11.71,11.71,0,0,0,3.8,6.43,15.22,15.22,0,0,0,10.45,3.55,22.88,22.88,0,0,0,6.66-.78,11.35,11.35,0,0,0,3.84-1.9,6.27,6.27,0,0,0,1.9-2.38l.26-.63a2.4,2.4,0,0,1,2.22-1.51Zm-9-11.28a2.4,2.4,0,0,0,2.31-3c-.14-.54-.31-1.06-.5-1.58A11.28,11.28,0,0,0,450,51.8a11.65,11.65,0,0,0-4.18-2.67,17.42,17.42,0,0,0-6.23-1,15,15,0,0,0-5.64,1,14.36,14.36,0,0,0-4.37,2.72,12.92,12.92,0,0,0-2.92,3.89,11.88,11.88,0,0,0-.56,1.34,2.4,2.4,0,0,0,2.27,3.18Z"/><path class="cls-1" d="M123,25.46c-2.26,14.9.33,33.21-12.35,47.26S84.26,86.38,64.94,89.83c2.87-18.29-.35-33.21,12.33-47.26S108.18,29.78,123,25.46Z"/><path class="cls-1" d="M63.6,0C68,7.31,75.7,14.38,75.22,25.08S68.61,40.54,61.42,49c-5.33-9-12.11-14.37-11.63-25.07S58.68,7.23,63.6,0Z"/><path class="cls-1" d="M0,25.46c2.26,14.9-.33,33.21,12.35,47.26S38.77,86.38,58.1,89.83c-2.88-18.29.35-33.21-12.33-47.26S14.85,29.78,0,25.46Z"/></g></g></svg>